# xmcd
#
# Track frame offsets:
#	150
#	17989
#	31353
#	46433
#	61404
#	79886
#	94506
#	109747
#	125562
#	136744
#	150776
#	162220
#
# Disc length: 2322 seconds
#
# Revision: 0
# Processed by: cddbd v1.5.2PL0 Copyright (c) Steve Scherf et al.
# Submitted via: dBpowerAMP V4.0
#
DISCID=8f09100c
DTITLE=André Mello e Diego - Aprende a Sorrir
DYEAR=2009
DGENRE=Country
TTITLE0=Deixa Roalr (Loucos Desejos)
TTITLE1=Se for pra Cantá Nóis Canta
TTITLE2=Aprende a Sorrir
TTITLE3=Agora é Tarde
TTITLE4=Não Vou te Perder
TTITLE5=Toma um Mé
TTITLE6=Amanhã (part. especial Roger e Rogério)
TTITLE7=Beber Até Cair
TTITLE8=Não Consigo Viver Sem Teu Amor
TTITLE9=O Negócio é Beber
TTITLE10=Realidade
TTITLE11=Estou Indo Embora
EXTD=
EXTT0=
EXTT1=
EXTT2=
EXTT3=
EXTT4=
EXTT5=
EXTT6=
EXTT7=
EXTT8=
EXTT9=
EXTT10=
EXTT11=
PLAYORDER=
